<svg width="16" height="16" viewBox="0 0 16 16" fill="none" xmlns="http://www.w3.org/2000/svg">
<path fill-rule="evenodd" clip-rule="evenodd" d="M8.0001 2.48328C8.35908 2.48328 8.6501 2.77429 8.6501 3.13328L8.6501 13.1333C8.6501 13.4923 8.35908 13.7833 8.0001 13.7833C7.64111 13.7833 7.3501 13.4923 7.3501 13.1333L7.3501 3.13328C7.3501 2.77429 7.64111 2.48328 8.0001 2.48328Z" fill="white"/>
<path fill-rule="evenodd" clip-rule="evenodd" d="M13.6501 8.13328C13.6501 8.49226 13.3591 8.78328 13.0001 8.78328L3.00015 8.78328C2.64116 8.78328 2.35015 8.49226 2.35015 8.13328C2.35015 7.77429 2.64116 7.48328 3.00015 7.48328L13.0001 7.48328C13.3591 7.48328 13.6501 7.77429 13.6501 8.13328Z" fill="white"/>
</svg>
